<svg width="174" height="55" viewBox="0 0 174 55" fill="none" xmlns="http://www.w3.org/2000/svg">
<path d="M46.1663 9.34789L20.3812 2.43878C15.5754 1.15107 10.6356 4.00305 9.3479 8.80884L2.43879 34.594C1.15108 39.3998 4.00306 44.3395 8.80886 45.6273L34.594 52.5364C39.3998 53.8241 44.3396 50.9721 45.6273 46.1663L52.5364 20.3812C53.8241 15.5754 50.9721 10.6356 46.1663 9.34789Z" fill="black" fill-opacity="0.2"/>
<path d="M39.8716 6.17258H15.1812C10.2059 6.17258 6.17261 10.2059 6.17261 15.1812V39.8715C6.17261 44.8468 10.2059 48.8801 15.1812 48.8801H39.8716C44.8469 48.8801 48.8802 44.8468 48.8802 39.8715V15.1812C48.8802 10.2059 44.8469 6.17258 39.8716 6.17258Z" fill="#FCBD10"/>
<path d="M75.0385 36.2013H64.7153V21.4539H73.5204L73.9542 23.666H67.513V27.6348H71.4601L71.9156 29.8686H67.513V34.0109H74.5831L75.0385 36.2013ZM81.9151 27.6782C80.932 27.6782 80.2452 28.0252 79.8548 28.7192C79.479 29.4132 79.291 30.1289 79.291 30.8662C79.291 31.6904 79.4645 32.4277 79.8115 33.0784C80.1585 33.729 80.8596 34.0543 81.9151 34.0543C82.2476 34.0543 82.5946 33.9821 82.9561 33.8374C83.332 33.6784 83.679 33.4976 83.9971 33.2952V28.4372C83.679 28.2204 83.332 28.0397 82.9561 27.8951C82.5946 27.7504 82.2476 27.6782 81.9151 27.6782ZM86.8382 20.89V36.2013H85.3634L84.5827 35.182C84.1056 35.5869 83.5417 35.9049 82.8911 36.1363C82.255 36.3532 81.6766 36.4616 81.1561 36.4616C79.6234 36.4616 78.4451 35.9266 77.621 34.8567C76.7969 33.7869 76.3848 32.4566 76.3848 30.8662C76.3848 29.2759 76.8186 27.9456 77.6861 26.8757C78.5681 25.8059 79.7681 25.2709 81.2862 25.2709C81.6766 25.2709 82.1175 25.3431 82.6091 25.4878C83.1008 25.6179 83.5634 25.8059 83.9971 26.0516V21.1286L86.8382 20.89ZM97.1354 35.1603C96.6583 35.6086 96.0727 35.9628 95.3787 36.223C94.6847 36.4978 94.0558 36.6351 93.4919 36.6351C92.0605 36.6351 91.0412 36.2159 90.434 35.3772C89.8411 34.5242 89.5448 33.4976 89.5448 32.2976V25.6829H92.3858V32.1675C92.3858 32.8326 92.5448 33.3458 92.863 33.7073C93.1809 34.0543 93.6437 34.2278 94.251 34.2278C94.6268 34.2278 95.0244 34.1339 95.4438 33.9459C95.863 33.7578 96.2462 33.541 96.5932 33.2952V25.6829H99.4126V36.2013H97.9378L97.1354 35.1603ZM107.137 27.8083C106.342 27.8083 105.721 28.1119 105.272 28.7192C104.824 29.3119 104.6 30.0566 104.6 30.953C104.6 31.8639 104.824 32.6084 105.272 33.1868C105.721 33.7652 106.342 34.0543 107.137 34.0543C107.629 34.0543 108.07 33.9964 108.46 33.8808C108.865 33.7507 109.321 33.57 109.827 33.3386L110.629 35.3772C110.137 35.7531 109.538 36.0278 108.829 36.2013C108.135 36.3748 107.564 36.4616 107.116 36.4616C105.41 36.4616 104.08 35.9628 103.125 34.9652C102.171 33.9675 101.694 32.6301 101.694 30.953C101.694 29.2759 102.171 27.9313 103.125 26.9191C104.08 25.907 105.41 25.401 107.116 25.401C107.564 25.401 108.128 25.4949 108.807 25.6829C109.501 25.871 110.109 26.1455 110.629 26.5071L109.827 28.524C109.321 28.2926 108.865 28.1191 108.46 28.0035C108.07 27.8734 107.629 27.8083 107.137 27.8083ZM114.779 33.0567C114.779 33.3603 114.901 33.6351 115.147 33.8808C115.393 34.1122 115.718 34.2278 116.123 34.2278C116.514 34.2278 116.904 34.141 117.294 33.9675C117.699 33.794 118.082 33.5338 118.444 33.1868V31.5819H116.318C115.827 31.5819 115.444 31.7337 115.169 32.0374C114.909 32.341 114.779 32.6808 114.779 33.0567ZM116.167 36.4616C114.88 36.4616 113.925 36.1508 113.304 35.529C112.682 34.8929 112.371 34.0688 112.371 33.0567C112.371 31.9723 112.74 31.141 113.477 30.5626C114.215 29.9842 115.176 29.6951 116.362 29.6951H118.422C118.408 29.1601 118.249 28.748 117.945 28.4589C117.656 28.1553 117.251 28.0035 116.73 28.0035C116.239 28.0035 115.704 28.0757 115.126 28.2204C114.547 28.3505 114.063 28.5095 113.673 28.6975L112.913 26.3552C113.318 26.0805 113.933 25.8564 114.757 25.6829C115.595 25.4949 116.239 25.401 116.687 25.401C117.945 25.401 119.022 25.7697 119.919 26.5071C120.815 27.2299 121.263 28.1553 121.263 29.2831V36.2013H119.81L119.116 35.3122C118.726 35.6158 118.263 35.8832 117.728 36.1146C117.208 36.346 116.687 36.4616 116.167 36.4616Z" fill="white"/>
<path d="M126.65 36.0345L126.259 21.5256C126.057 21.5401 125.862 21.5618 125.674 21.5907C125.486 21.6195 125.312 21.6486 125.153 21.6774L124.719 19.7689C125.139 19.6822 125.652 19.5883 126.259 19.487C126.867 19.3857 127.524 19.2918 128.233 19.2051C128.941 19.1183 129.643 19.0461 130.337 18.9882C131.045 18.9303 131.696 18.9014 132.288 18.9014C133.937 18.9014 135.346 19.2484 136.517 19.9424C137.703 20.6219 138.614 21.6195 139.25 22.9353C139.886 24.2366 140.204 25.8269 140.204 27.7065C140.204 28.9356 140.009 30.056 139.619 31.0681C139.243 32.0802 138.708 32.9621 138.014 33.714C137.32 34.4513 136.503 35.0224 135.563 35.4273C134.623 35.8322 133.597 36.0345 132.484 36.0345H126.65ZM129.317 33.9092C130.055 33.9092 130.792 33.8946 131.529 33.8658C132.267 33.8224 132.917 33.7357 133.481 33.6055C134.103 33.4609 134.696 33.1429 135.26 32.6513C135.823 32.1453 136.279 31.473 136.626 30.6344C136.987 29.7957 137.168 28.8126 137.168 27.6849C137.168 26.2101 136.937 24.9956 136.474 24.0414C136.026 23.0871 135.419 22.3786 134.652 21.916C133.886 21.4389 133.019 21.2003 132.05 21.2003C131.139 21.2003 130.228 21.222 129.317 21.2654V33.9092ZM153.254 36.3165L152.105 32.8465H144.688L143.17 36.3165L140.914 36.0345L147.16 18.6846L150.522 19.5087L150.066 20.528L156.573 36.0128L153.254 36.3165ZM148.917 23.1739L145.534 30.8946L151.259 30.2657L148.917 23.1739ZM165.26 36.4249C163.698 36.4249 162.347 36.049 161.204 35.2971C160.062 34.5453 159.18 33.5043 158.559 32.1742C157.951 30.8295 157.648 29.2826 157.648 27.533C157.648 25.8126 157.951 24.2944 158.559 22.9787C159.18 21.6486 160.062 20.6076 161.204 19.8557C162.347 19.0895 163.698 18.7063 165.26 18.7063C166.821 18.7063 168.166 19.0895 169.294 19.8557C170.437 20.6076 171.311 21.6486 171.918 22.9787C172.525 24.3088 172.829 25.8269 172.829 27.533C172.829 29.2826 172.525 30.8295 171.918 32.1742C171.311 33.5043 170.437 34.5453 169.294 35.2971C168.166 36.049 166.821 36.4249 165.26 36.4249ZM165.802 33.9742C166.612 33.902 167.32 33.62 167.928 33.1284C168.55 32.6368 169.034 31.9645 169.381 31.1115C169.728 30.244 169.901 29.2392 169.901 28.0969C169.901 27.9379 169.894 27.7788 169.879 27.6198C169.879 27.4608 169.873 27.3017 169.858 27.1427C169.756 25.8848 169.482 24.8076 169.034 23.9112C168.6 23.0149 168.043 22.3352 167.364 21.8726C166.684 21.3955 165.932 21.1569 165.108 21.1569C165.05 21.1569 164.985 21.1569 164.913 21.1569C164.855 21.1569 164.79 21.1641 164.718 21.1786C163.923 21.2365 163.214 21.5111 162.592 22.0027C161.971 22.4944 161.479 23.1667 161.118 24.0197C160.756 24.8583 160.576 25.8486 160.576 26.9909C160.576 27.1355 160.576 27.2873 160.576 27.4463C160.59 27.6053 160.604 27.7644 160.619 27.9234C160.72 29.1958 160.995 30.2873 161.443 31.1982C161.891 32.0946 162.462 32.7886 163.156 33.2802C163.85 33.7573 164.617 33.9959 165.455 33.9959C165.513 33.9959 165.571 33.9959 165.629 33.9959C165.686 33.9814 165.744 33.9742 165.802 33.9742Z" fill="white"/>
<path d="M32.327 22.635C30.4243 22.635 28.5133 22.9782 27.469 23.7159C26.4247 22.9782 24.5138 22.635 22.611 22.635C19.7901 22.635 16.9432 23.3864 16.9432 25.064V38.8285H25.04C25.04 39.2763 26.1274 39.6383 27.469 39.6383C28.8106 39.6383 29.898 39.2763 29.898 38.8285H37.9947V25.064C37.9947 23.3864 35.148 22.635 32.327 22.635ZM36.3754 25.1327V36.2359C35.296 35.7971 33.8079 35.5898 32.327 35.5898C31.0633 35.5898 29.4584 35.7891 28.2788 36.2699V25.1329C28.5168 24.8511 29.907 24.2544 32.327 24.2544C34.747 24.2544 36.1373 24.8511 36.3754 25.1329V25.1327ZM18.563 25.1327C18.801 24.851 20.1912 24.2542 22.6112 24.2542C25.0312 24.2542 26.4215 24.851 26.6595 25.1327V36.2359C25.5802 35.7971 24.0921 35.5898 22.6112 35.5898C21.3475 35.5898 19.7426 35.7891 18.563 36.2699V25.1327Z" fill="#36157A"/>
<path d="M39.9563 21.0917L27.8113 15.4239C27.5943 15.3227 27.3434 15.3227 27.1263 15.4239L14.9813 21.0917C14.5758 21.2802 14.4008 21.7628 14.5904 22.1677C14.7798 22.5726 15.2617 22.7476 15.6665 22.5588L27.4688 17.0515L39.2715 22.5598C39.3824 22.6108 39.4982 22.635 39.6131 22.635C39.9184 22.635 40.2099 22.4618 40.3475 22.1679C40.537 21.763 40.362 21.2804 39.9565 21.0919L39.9563 21.0917Z" fill="#36157A"/>
</svg>
