<svg width="245" height="245" viewBox="0 0 245 245" fill="none" xmlns="http://www.w3.org/2000/svg">
<path d="M82.3142 203.748C97.3782 204.252 112.39 201.731 126.464 196.334C140.537 190.938 153.385 182.775 164.25 172.328C175.115 161.881 183.775 149.362 189.719 135.511C195.663 121.661 198.771 106.759 198.858 91.6866C205.761 83.1436 210.887 73.3069 213.935 62.7545C214.162 61.9208 214.144 61.0391 213.882 60.2156C213.62 59.3921 213.126 58.6618 212.458 58.1128C211.791 57.5638 210.979 57.2195 210.12 57.1212C209.262 57.0229 208.393 57.175 207.619 57.559C204.007 59.2975 199.941 59.8591 195.993 59.1646C192.046 58.4701 188.415 56.5545 185.614 53.6878C182.038 49.7716 177.712 46.613 172.893 44.3992C168.073 42.1855 162.859 40.9616 157.558 40.8001C152.257 40.6386 146.977 41.5428 142.032 43.459C137.087 45.3753 132.577 48.2647 128.769 51.9559C123.555 57.0054 119.736 63.3178 117.683 70.2797C115.63 77.2416 115.413 84.6161 117.053 91.6866C82.9255 93.7241 59.4946 77.5262 40.7498 55.3178C40.1867 54.6801 39.4501 54.2201 38.6299 53.9941C37.8097 53.7681 36.9414 53.7859 36.1311 54.0452C35.3209 54.3044 34.6036 54.7941 34.067 55.4542C33.5304 56.1144 33.1976 56.9166 33.1093 57.7627C29.5383 77.5713 32.1143 97.9982 40.4913 116.3C48.8682 134.602 62.645 149.902 79.9712 160.146C68.3539 173.469 52.0396 181.79 34.4337 183.373C33.4905 183.529 32.6197 183.977 31.9434 184.652C31.267 185.328 30.8189 186.199 30.6617 187.142C30.5046 188.085 30.6462 189.053 31.0668 189.912C31.4874 190.771 32.1659 191.476 33.0074 191.93C48.3243 199.585 65.1917 203.627 82.3142 203.748" fill="#FCBD10"/>
</svg>
