<svg width="409" height="129" viewBox="0 0 409 129" fill="none" xmlns="http://www.w3.org/2000/svg">
<path d="M108.506 21.9707L47.902 5.73199C36.6068 2.70545 24.9967 9.40853 21.9702 20.7037L5.73147 81.3073C2.70493 92.6025 9.40801 104.213 20.7032 107.239L81.3068 123.478C92.602 126.504 104.212 119.801 107.239 108.506L123.477 47.9025C126.504 36.6073 119.801 24.9972 108.506 21.9707Z" fill="black" fill-opacity="0.2"/>
<path d="M93.7115 14.5078H35.6811C23.9874 14.5078 14.5078 23.9874 14.5078 35.6811V93.7115C14.5078 105.405 23.9874 114.885 35.6811 114.885H93.7115C105.405 114.885 114.885 105.405 114.885 93.7115V35.6811C114.885 23.9874 105.405 14.5078 93.7115 14.5078Z" fill="#FCBD10"/>
<path d="M176.366 85.0853H152.103V50.4239H172.797L173.817 55.6231H158.678V64.9511H167.955L169.025 70.2013H158.678V79.9371H175.295L176.366 85.0853ZM192.528 65.0531C190.217 65.0531 188.603 65.8686 187.685 67.4998C186.802 69.1309 186.36 70.813 186.36 72.5461C186.36 74.483 186.768 76.2161 187.583 77.7453C188.399 79.2744 190.047 80.039 192.528 80.039C193.309 80.039 194.125 79.8693 194.974 79.5293C195.858 79.1556 196.673 78.7306 197.421 78.255V66.8371C196.673 66.3274 195.858 65.9027 194.974 65.5628C194.125 65.2229 193.309 65.0531 192.528 65.0531ZM204.099 49.0986V85.0853H200.632L198.797 82.6896C197.676 83.6412 196.351 84.3886 194.822 84.9324C193.326 85.4421 191.967 85.697 190.744 85.697C187.142 85.697 184.372 84.4395 182.435 81.925C180.498 79.4105 179.53 76.2839 179.53 72.5461C179.53 68.8082 180.549 65.6816 182.588 63.1671C184.661 60.6526 187.481 59.3951 191.05 59.3951C191.967 59.3951 193.003 59.5649 194.159 59.9048C195.314 60.2107 196.402 60.6526 197.421 61.2301V49.6593L204.099 49.0986ZM228.3 82.6386C227.179 83.6922 225.803 84.5246 224.172 85.1363C222.54 85.7821 221.062 86.1048 219.737 86.1048C216.373 86.1048 213.977 85.1194 212.55 83.1484C211.156 81.1436 210.46 78.7306 210.46 75.9102V60.3636H217.137V75.6044C217.137 77.1677 217.511 78.3738 218.259 79.2235C219.006 80.039 220.094 80.4468 221.521 80.4468C222.404 80.4468 223.339 80.2261 224.325 79.7842C225.31 79.3423 226.211 78.8325 227.026 78.255V60.3636H233.652V85.0853H230.186L228.3 82.6386ZM251.809 65.3589C249.939 65.3589 248.478 66.0725 247.425 67.4998C246.371 68.8929 245.845 70.6432 245.845 72.7499C245.845 74.8908 246.371 76.6407 247.425 78.0001C248.478 79.3595 249.939 80.039 251.809 80.039C252.964 80.039 254 79.903 254.918 79.6312C255.87 79.3254 256.94 78.9008 258.129 78.3569L260.015 83.1484C258.86 84.0318 257.45 84.6775 255.784 85.0853C254.153 85.4931 252.811 85.697 251.758 85.697C247.748 85.697 244.621 84.5246 242.379 82.1799C240.136 79.8351 239.014 76.6917 239.014 72.7499C239.014 68.8082 240.136 65.6479 242.379 63.269C244.621 60.8902 247.748 59.7009 251.758 59.7009C252.811 59.7009 254.136 59.9217 255.733 60.3636C257.365 60.8055 258.792 61.4509 260.015 62.3005L258.129 67.041C256.94 66.4972 255.87 66.0894 254.918 65.8177C254 65.5118 252.964 65.3589 251.809 65.3589ZM269.768 77.6943C269.768 78.4079 270.056 79.0537 270.634 79.6312C271.212 80.1751 271.976 80.4468 272.928 80.4468C273.846 80.4468 274.763 80.2429 275.681 79.8351C276.632 79.4274 277.532 78.8157 278.382 78.0001V74.2281H273.387C272.231 74.2281 271.331 74.585 270.685 75.2986C270.074 76.0122 269.768 76.8109 269.768 77.6943ZM273.03 85.697C270.005 85.697 267.763 84.9665 266.302 83.5052C264.84 82.0101 264.11 80.0731 264.11 77.6943C264.11 75.1457 264.976 73.1918 266.709 71.8324C268.442 70.473 270.702 69.7935 273.489 69.7935H278.331C278.297 68.5361 277.923 67.5676 277.21 66.8881C276.53 66.1745 275.579 65.8177 274.355 65.8177C273.2 65.8177 271.942 65.9874 270.583 66.3274C269.224 66.6332 268.086 67.0069 267.168 67.4488L265.384 61.9437C266.335 61.298 267.78 60.7714 269.717 60.3636C271.688 59.9217 273.2 59.7009 274.253 59.7009C277.21 59.7009 279.741 60.5675 281.848 62.3005C283.955 63.9995 285.009 66.1745 285.009 68.825V85.0853H281.593L279.962 82.9954C279.045 83.7091 277.957 84.3376 276.7 84.8814C275.477 85.4253 274.253 85.697 273.03 85.697Z" fill="#FCBD10"/>
<path d="M297.668 84.6932L296.751 50.5925C296.275 50.6266 295.817 50.6775 295.375 50.7454C294.933 50.8132 294.525 50.8814 294.151 50.9493L293.132 46.4637C294.117 46.2598 295.324 46.039 296.751 45.801C298.178 45.563 299.724 45.3423 301.389 45.1384C303.055 44.9345 304.703 44.7647 306.334 44.6287C307.999 44.4926 309.528 44.4248 310.921 44.4248C314.795 44.4248 318.108 45.2403 320.861 46.8715C323.648 48.4685 325.788 50.8132 327.284 53.9057C328.779 56.964 329.526 60.7019 329.526 65.1197C329.526 68.0082 329.068 70.6416 328.15 73.0204C327.267 75.3993 326.009 77.4719 324.378 79.2391C322.747 80.9722 320.827 82.3143 318.618 83.2659C316.409 84.2175 313.997 84.6932 311.38 84.6932H297.668ZM303.938 79.6978C305.671 79.6978 307.404 79.6637 309.137 79.5959C310.87 79.4939 312.4 79.2901 313.725 78.9842C315.186 78.6443 316.579 77.8969 317.905 76.7414C319.23 75.5522 320.3 73.972 321.116 72.001C321.965 70.0299 322.39 67.7193 322.39 65.0687C322.39 61.6025 321.846 58.7481 320.759 56.5053C319.705 54.2625 318.278 52.5972 316.477 51.51C314.676 50.3886 312.637 49.8279 310.361 49.8279C308.22 49.8279 306.079 49.8788 303.938 49.9808V79.6978ZM360.199 85.3558L357.497 77.2002H340.064L336.496 85.3558L331.195 84.6932L345.875 43.915L353.776 45.852L352.706 48.2477L367.997 84.6422L360.199 85.3558ZM350.004 54.4664L342.052 72.6126L355.509 71.1344L350.004 54.4664ZM388.415 85.6107C384.745 85.6107 381.568 84.7273 378.884 82.9601C376.199 81.1929 374.126 78.7462 372.665 75.62C371.238 72.4597 370.524 68.8238 370.524 64.7119C370.524 60.6682 371.238 57.1001 372.665 54.0076C374.126 50.8814 376.199 48.4347 378.884 46.6676C381.568 44.8667 384.745 43.966 388.415 43.966C392.085 43.966 395.246 44.8667 397.896 46.6676C400.582 48.4347 402.637 50.8814 404.064 54.0076C405.491 57.1338 406.205 60.7019 406.205 64.7119C406.205 68.8238 405.491 72.4597 404.064 75.62C402.637 78.7462 400.582 81.1929 397.896 82.9601C395.246 84.7273 392.085 85.6107 388.415 85.6107ZM389.69 79.8508C391.593 79.681 393.258 79.0183 394.685 77.8628C396.148 76.7073 397.285 75.1272 398.1 73.1224C398.916 71.0835 399.324 68.7219 399.324 66.0372C399.324 65.6635 399.308 65.2894 399.273 64.9158C399.273 64.5421 399.257 64.168 399.222 63.7944C398.982 60.838 398.339 58.3062 397.285 56.1994C396.265 54.0927 394.956 52.4953 393.36 51.408C391.762 50.2866 389.996 49.7259 388.059 49.7259C387.923 49.7259 387.77 49.7259 387.6 49.7259C387.464 49.7259 387.311 49.7428 387.141 49.7769C385.272 49.9129 383.607 50.5583 382.146 51.7139C380.684 52.8694 379.529 54.4495 378.68 56.4543C377.83 58.4254 377.405 60.7529 377.405 63.4376C377.405 63.7775 377.405 64.1343 377.405 64.508C377.439 64.8817 377.473 65.2557 377.507 65.6294C377.745 68.6199 378.391 71.1854 379.444 73.3263C380.497 75.433 381.84 77.0641 383.471 78.2196C385.102 79.341 386.903 79.9017 388.874 79.9017C389.01 79.9017 389.146 79.9017 389.282 79.9017C389.418 79.8676 389.554 79.8508 389.69 79.8508Z" fill="#FCBD10"/>
<path d="M75.9795 53.2002C71.5073 53.2002 67.0162 54.0067 64.5616 55.7406C62.1067 54.0067 57.6156 53.2002 53.1438 53.2002C46.5138 53.2002 39.8223 54.9662 39.8223 58.9091V91.2603H58.8527C58.8527 92.3127 61.4084 93.1635 64.5616 93.1635C67.7145 93.1635 70.2706 92.3127 70.2706 91.2603H89.3006V58.9091C89.3006 54.9662 82.6095 53.2002 75.9795 53.2002ZM85.4941 59.0707V85.1667C82.9573 84.1351 79.4598 83.6481 75.9795 83.6481C73.009 83.6481 69.237 84.1167 66.4645 85.2467V59.0711C67.024 58.4088 70.2918 57.0063 75.9795 57.0063C81.6673 57.0063 84.9346 58.4088 85.4941 59.0711V59.0707ZM43.6291 59.0707C44.1887 58.4084 47.4564 57.0059 53.1442 57.0059C58.8319 57.0059 62.0993 58.4084 62.6588 59.0707V85.1667C60.1219 84.1351 56.6244 83.6481 53.1442 83.6481C50.1736 83.6481 46.4017 84.1167 43.6291 85.2467V59.0707Z" fill="#36157A"/>
<path d="M93.9103 49.5728L65.3656 36.2515C64.8555 36.0138 64.2658 36.0138 63.7556 36.2515L35.2108 49.5728C34.2578 50.0158 33.8465 51.1502 34.2921 52.1018C34.7373 53.0534 35.8699 53.4647 36.8212 53.0209L64.5606 40.077L92.3007 53.0232C92.5615 53.1432 92.8336 53.2001 93.1037 53.2001C93.8213 53.2001 94.5063 52.7931 94.8297 52.1022C95.2752 51.1506 94.8638 50.0162 93.9107 49.5732L93.9103 49.5728Z" fill="#36157A"/>
</svg>
