<svg width="1043" height="329" viewBox="0 0 1043 329" fill="none" xmlns="http://www.w3.org/2000/svg">
<rect x="69.3672" width="268.015" height="268.015" rx="54" transform="rotate(15 69.3672 0)" fill="white" fill-opacity="0.2"/>
<rect x="36.3574" y="36.3574" width="256" height="256" rx="54" fill="white"/>
<path d="M449.157 216.357H387.277V127.957H440.057L442.657 141.217H404.047V165.007H427.707L430.437 178.397H404.047V203.227H446.427L449.157 216.357ZM490.378 165.267C484.484 165.267 480.368 167.347 478.028 171.507C475.774 175.667 474.648 179.957 474.648 184.377C474.648 189.317 475.688 193.737 477.768 197.637C479.848 201.537 484.051 203.487 490.378 203.487C492.371 203.487 494.451 203.054 496.618 202.187C498.871 201.234 500.951 200.151 502.858 198.937V169.817C500.951 168.517 498.871 167.434 496.618 166.567C494.451 165.701 492.371 165.267 490.378 165.267ZM519.888 124.577V216.357H511.048L506.368 210.247C503.508 212.674 500.128 214.581 496.228 215.967C492.414 217.267 488.948 217.917 485.828 217.917C476.641 217.917 469.578 214.711 464.638 208.297C459.698 201.884 457.228 193.911 457.228 184.377C457.228 174.844 459.828 166.871 465.028 160.457C470.314 154.044 477.508 150.837 486.608 150.837C488.948 150.837 491.591 151.271 494.538 152.137C497.484 152.917 500.258 154.044 502.858 155.517V126.007L519.888 124.577ZM581.611 210.117C578.751 212.804 575.241 214.927 571.081 216.487C566.921 218.134 563.151 218.957 559.771 218.957C551.191 218.957 545.081 216.444 541.441 211.417C537.888 206.304 536.111 200.151 536.111 192.957V153.307H553.141V192.177C553.141 196.164 554.095 199.241 556.001 201.407C557.908 203.487 560.681 204.527 564.321 204.527C566.575 204.527 568.958 203.964 571.471 202.837C573.985 201.711 576.281 200.411 578.361 198.937V153.307H595.261V216.357H586.421L581.611 210.117ZM641.567 166.047C636.8 166.047 633.073 167.867 630.387 171.507C627.7 175.061 626.357 179.524 626.357 184.897C626.357 190.357 627.7 194.821 630.387 198.287C633.073 201.754 636.8 203.487 641.567 203.487C644.513 203.487 647.157 203.141 649.497 202.447C651.923 201.667 654.653 200.584 657.687 199.197L662.497 211.417C659.55 213.671 655.953 215.317 651.707 216.357C647.547 217.397 644.123 217.917 641.437 217.917C631.21 217.917 623.237 214.927 617.517 208.947C611.797 202.967 608.937 194.951 608.937 184.897C608.937 174.844 611.797 166.784 617.517 160.717C623.237 154.651 631.21 151.617 641.437 151.617C644.123 151.617 647.503 152.181 651.577 153.307C655.737 154.434 659.377 156.081 662.497 158.247L657.687 170.337C654.653 168.951 651.923 167.911 649.497 167.217C647.157 166.437 644.513 166.047 641.567 166.047ZM687.369 197.507C687.369 199.327 688.106 200.974 689.579 202.447C691.053 203.834 693.003 204.527 695.429 204.527C697.769 204.527 700.109 204.007 702.449 202.967C704.876 201.927 707.173 200.367 709.339 198.287V188.667H696.599C693.653 188.667 691.356 189.577 689.709 191.397C688.149 193.217 687.369 195.254 687.369 197.507ZM695.689 217.917C687.976 217.917 682.256 216.054 678.529 212.327C674.803 208.514 672.939 203.574 672.939 197.507C672.939 191.007 675.149 186.024 679.569 182.557C683.989 179.091 689.753 177.357 696.859 177.357H709.209C709.123 174.151 708.169 171.681 706.349 169.947C704.616 168.127 702.189 167.217 699.069 167.217C696.123 167.217 692.916 167.651 689.449 168.517C685.983 169.297 683.079 170.251 680.739 171.377L676.189 157.337C678.616 155.691 682.299 154.347 687.239 153.307C692.266 152.181 696.123 151.617 698.809 151.617C706.349 151.617 712.806 153.827 718.179 158.247C723.553 162.581 726.239 168.127 726.239 174.887V216.357H717.529L713.369 211.027C711.029 212.847 708.256 214.451 705.049 215.837C701.929 217.224 698.809 217.917 695.689 217.917Z" fill="white"/>
<path d="M758.527 215.357L756.187 128.387C754.974 128.474 753.804 128.604 752.677 128.777C751.551 128.951 750.511 129.124 749.557 129.297L746.957 117.857C749.471 117.337 752.547 116.774 756.187 116.167C759.827 115.561 763.771 114.997 768.017 114.477C772.264 113.957 776.467 113.524 780.627 113.177C784.874 112.831 788.774 112.657 792.327 112.657C802.207 112.657 810.657 114.737 817.677 118.897C824.784 122.971 830.244 128.951 834.057 136.837C837.871 144.637 839.777 154.171 839.777 165.437C839.777 172.804 838.607 179.521 836.267 185.587C834.014 191.654 830.807 196.941 826.647 201.447C822.487 205.867 817.591 209.291 811.957 211.717C806.324 214.144 800.171 215.357 793.497 215.357H758.527ZM774.517 202.617C778.937 202.617 783.357 202.531 787.777 202.357C792.197 202.097 796.097 201.577 799.477 200.797C803.204 199.931 806.757 198.024 810.137 195.077C813.517 192.044 816.247 188.014 818.327 182.987C820.494 177.961 821.577 172.067 821.577 165.307C821.577 156.467 820.191 149.187 817.417 143.467C814.731 137.747 811.091 133.501 806.497 130.727C801.904 127.867 796.704 126.437 790.897 126.437C785.437 126.437 779.977 126.567 774.517 126.827V202.617ZM918.004 217.047L911.114 196.247H866.654L857.554 217.047L844.034 215.357L881.474 111.357L901.624 116.297L898.894 122.407L937.894 215.227L918.004 217.047ZM892.004 138.267L871.724 184.547L906.044 180.777L892.004 138.267ZM989.967 217.697C980.607 217.697 972.504 215.444 965.657 210.937C958.81 206.431 953.524 200.191 949.797 192.217C946.157 184.157 944.337 174.884 944.337 164.397C944.337 154.084 946.157 144.984 949.797 137.097C953.524 129.124 958.81 122.884 965.657 118.377C972.504 113.784 980.607 111.487 989.967 111.487C999.327 111.487 1007.39 113.784 1014.15 118.377C1020.99 122.884 1026.24 129.124 1029.88 137.097C1033.52 145.071 1035.34 154.171 1035.34 164.397C1035.34 174.884 1033.52 184.157 1029.88 192.217C1026.24 200.191 1020.99 206.431 1014.15 210.937C1007.39 215.444 999.327 217.697 989.967 217.697ZM993.217 203.007C998.07 202.574 1002.32 200.884 1005.96 197.937C1009.68 194.991 1012.59 190.961 1014.67 185.847C1016.75 180.647 1017.79 174.624 1017.79 167.777C1017.79 166.824 1017.74 165.871 1017.66 164.917C1017.66 163.964 1017.61 163.011 1017.53 162.057C1016.92 154.517 1015.27 148.061 1012.59 142.687C1009.99 137.314 1006.65 133.241 1002.58 130.467C998.504 127.607 993.997 126.177 989.057 126.177C988.71 126.177 988.32 126.177 987.887 126.177C987.54 126.177 987.15 126.221 986.717 126.307C981.95 126.654 977.704 128.301 973.977 131.247C970.25 134.194 967.304 138.224 965.137 143.337C962.97 148.364 961.887 154.301 961.887 161.147C961.887 162.014 961.887 162.924 961.887 163.877C961.974 164.831 962.06 165.784 962.147 166.737C962.754 174.364 964.4 180.907 967.087 186.367C969.774 191.741 973.197 195.901 977.357 198.847C981.517 201.707 986.11 203.137 991.137 203.137C991.484 203.137 991.83 203.137 992.177 203.137C992.524 203.051 992.87 203.007 993.217 203.007Z" fill="white"/>
<path d="M193.134 135.037C181.729 135.037 170.274 137.095 164.014 141.517C157.754 137.095 146.3 135.037 134.894 135.037C117.985 135.037 100.92 139.541 100.92 149.597V232.106H149.454C149.454 234.79 155.972 236.959 164.014 236.959C172.056 236.959 178.574 234.79 178.574 232.106H227.108V149.597C227.108 139.541 210.044 135.037 193.134 135.037ZM217.4 150.009V216.564C210.931 213.934 202.011 212.692 193.134 212.692C185.558 212.692 175.938 213.886 168.868 216.768V150.011C170.295 148.322 178.628 144.745 193.134 144.745C207.64 144.745 215.974 148.322 217.4 150.011V150.009ZM110.629 150.009C112.056 148.32 120.389 144.743 134.895 144.743C149.401 144.743 157.735 148.321 159.161 150.009V216.564C152.692 213.934 143.772 212.692 134.895 212.692C127.32 212.692 117.7 213.886 110.629 216.768V150.009Z" fill="#232323"/>
<path d="M238.865 125.786L166.065 91.8122C164.764 91.2058 163.26 91.2058 161.959 91.8122L89.159 125.786C86.7286 126.917 85.6794 129.809 86.8159 132.237C87.9514 134.663 90.8399 135.712 93.2663 134.581L164.012 101.569L234.761 134.586C235.425 134.893 236.12 135.038 236.808 135.038C238.639 135.038 240.385 133.999 241.21 132.238C242.347 129.81 241.298 126.918 238.866 125.787L238.865 125.786Z" fill="#232323"/>
</svg>
