<svg width="666" height="567" viewBox="0 0 666 567" fill="none" xmlns="http://www.w3.org/2000/svg">
<path d="M72.8 502H10.92V413.6H63.7L66.3 426.86H27.69V450.65H51.35L54.08 464.04H27.69V488.87H70.07L72.8 502ZM114.02 450.91C108.127 450.91 104.01 452.99 101.67 457.15C99.4168 461.31 98.2902 465.6 98.2902 470.02C98.2902 474.96 99.3302 479.38 101.41 483.28C103.49 487.18 107.693 489.13 114.02 489.13C116.013 489.13 118.093 488.697 120.26 487.83C122.513 486.877 124.593 485.793 126.5 484.58V455.46C124.593 454.16 122.513 453.077 120.26 452.21C118.093 451.343 116.013 450.91 114.02 450.91ZM143.53 410.22V502H134.69L130.01 495.89C127.15 498.317 123.77 500.223 119.87 501.61C116.057 502.91 112.59 503.56 109.47 503.56C100.283 503.56 93.2202 500.353 88.2802 493.94C83.3402 487.527 80.8702 479.553 80.8702 470.02C80.8702 460.487 83.4702 452.513 88.6702 446.1C93.9568 439.687 101.15 436.48 110.25 436.48C112.59 436.48 115.233 436.913 118.18 437.78C121.127 438.56 123.9 439.687 126.5 441.16V411.65L143.53 410.22ZM205.254 495.76C202.394 498.447 198.884 500.57 194.724 502.13C190.564 503.777 186.794 504.6 183.414 504.6C174.834 504.6 168.724 502.087 165.084 497.06C161.53 491.947 159.754 485.793 159.754 478.6V438.95H176.784V477.82C176.784 481.807 177.737 484.883 179.644 487.05C181.55 489.13 184.324 490.17 187.964 490.17C190.217 490.17 192.6 489.607 195.114 488.48C197.627 487.353 199.924 486.053 202.004 484.58V438.95H218.904V502H210.064L205.254 495.76ZM265.209 451.69C260.442 451.69 256.716 453.51 254.029 457.15C251.342 460.703 249.999 465.167 249.999 470.54C249.999 476 251.342 480.463 254.029 483.93C256.716 487.397 260.442 489.13 265.209 489.13C268.156 489.13 270.799 488.783 273.139 488.09C275.566 487.31 278.296 486.227 281.329 484.84L286.139 497.06C283.192 499.313 279.596 500.96 275.349 502C271.189 503.04 267.766 503.56 265.079 503.56C254.852 503.56 246.879 500.57 241.159 494.59C235.439 488.61 232.579 480.593 232.579 470.54C232.579 460.487 235.439 452.427 241.159 446.36C246.879 440.293 254.852 437.26 265.079 437.26C267.766 437.26 271.146 437.823 275.219 438.95C279.379 440.077 283.019 441.723 286.139 443.89L281.329 455.98C278.296 454.593 275.566 453.553 273.139 452.86C270.799 452.08 268.156 451.69 265.209 451.69ZM311.012 483.15C311.012 484.97 311.748 486.617 313.222 488.09C314.695 489.477 316.645 490.17 319.072 490.17C321.412 490.17 323.752 489.65 326.092 488.61C328.518 487.57 330.815 486.01 332.982 483.93V474.31H320.242C317.295 474.31 314.998 475.22 313.352 477.04C311.792 478.86 311.012 480.897 311.012 483.15ZM319.332 503.56C311.618 503.56 305.898 501.697 302.172 497.97C298.445 494.157 296.582 489.217 296.582 483.15C296.582 476.65 298.792 471.667 303.212 468.2C307.632 464.733 313.395 463 320.502 463H332.852C332.765 459.793 331.812 457.323 329.992 455.59C328.258 453.77 325.832 452.86 322.712 452.86C319.765 452.86 316.558 453.293 313.092 454.16C309.625 454.94 306.722 455.893 304.382 457.02L299.832 442.98C302.258 441.333 305.942 439.99 310.882 438.95C315.908 437.823 319.765 437.26 322.452 437.26C329.992 437.26 336.448 439.47 341.822 443.89C347.195 448.223 349.882 453.77 349.882 460.53V502H341.172L337.012 496.67C334.672 498.49 331.898 500.093 328.692 501.48C325.572 502.867 322.452 503.56 319.332 503.56Z" fill="white"/>
<path d="M382.17 501L379.83 414.03C378.617 414.117 377.447 414.247 376.32 414.42C375.193 414.593 374.153 414.767 373.2 414.94L370.6 403.5C373.113 402.98 376.19 402.417 379.83 401.81C383.47 401.203 387.413 400.64 391.66 400.12C395.907 399.6 400.11 399.167 404.27 398.82C408.517 398.473 412.417 398.3 415.97 398.3C425.85 398.3 434.3 400.38 441.32 404.54C448.427 408.613 453.887 414.593 457.7 422.48C461.513 430.28 463.42 439.813 463.42 451.08C463.42 458.447 462.25 465.163 459.91 471.23C457.657 477.297 454.45 482.583 450.29 487.09C446.13 491.51 441.233 494.933 435.6 497.36C429.967 499.787 423.813 501 417.14 501H382.17ZM398.16 488.26C402.58 488.26 407 488.173 411.42 488C415.84 487.74 419.74 487.22 423.12 486.44C426.847 485.573 430.4 483.667 433.78 480.72C437.16 477.687 439.89 473.657 441.97 468.63C444.137 463.603 445.22 457.71 445.22 450.95C445.22 442.11 443.833 434.83 441.06 429.11C438.373 423.39 434.733 419.143 430.14 416.37C425.547 413.51 420.347 412.08 414.54 412.08C409.08 412.08 403.62 412.21 398.16 412.47V488.26ZM541.646 502.69L534.756 481.89H490.296L481.196 502.69L467.676 501L505.116 397L525.266 401.94L522.536 408.05L561.536 500.87L541.646 502.69ZM515.646 423.91L495.366 470.19L529.686 466.42L515.646 423.91ZM613.61 503.34C604.25 503.34 596.146 501.087 589.3 496.58C582.453 492.073 577.166 485.833 573.44 477.86C569.8 469.8 567.98 460.527 567.98 450.04C567.98 439.727 569.8 430.627 573.44 422.74C577.166 414.767 582.453 408.527 589.3 404.02C596.146 399.427 604.25 397.13 613.61 397.13C622.97 397.13 631.03 399.427 637.79 404.02C644.636 408.527 649.88 414.767 653.52 422.74C657.16 430.713 658.98 439.813 658.98 450.04C658.98 460.527 657.16 469.8 653.52 477.86C649.88 485.833 644.636 492.073 637.79 496.58C631.03 501.087 622.97 503.34 613.61 503.34ZM616.86 488.65C621.713 488.217 625.96 486.527 629.6 483.58C633.326 480.633 636.23 476.603 638.31 471.49C640.39 466.29 641.43 460.267 641.43 453.42C641.43 452.467 641.386 451.513 641.3 450.56C641.3 449.607 641.256 448.653 641.17 447.7C640.563 440.16 638.916 433.703 636.23 428.33C633.63 422.957 630.293 418.883 626.22 416.11C622.146 413.25 617.64 411.82 612.7 411.82C612.353 411.82 611.963 411.82 611.53 411.82C611.183 411.82 610.793 411.863 610.36 411.95C605.593 412.297 601.346 413.943 597.62 416.89C593.893 419.837 590.946 423.867 588.78 428.98C586.613 434.007 585.53 439.943 585.53 446.79C585.53 447.657 585.53 448.567 585.53 449.52C585.616 450.473 585.703 451.427 585.79 452.38C586.396 460.007 588.043 466.55 590.73 472.01C593.416 477.383 596.84 481.543 601 484.49C605.16 487.35 609.753 488.78 614.78 488.78C615.126 488.78 615.473 488.78 615.82 488.78C616.166 488.693 616.513 488.65 616.86 488.65Z" fill="white"/>
<path d="M393.314 90.6138C369.653 90.6138 345.891 94.8824 332.904 104.056C319.917 94.8824 296.155 90.6138 272.494 90.6138C237.416 90.6138 202.015 99.9579 202.015 120.819V291.983H302.699C302.699 297.552 316.221 302.052 332.904 302.052C349.587 302.052 363.109 297.552 363.109 291.983H463.794V120.819C463.794 99.9579 428.393 90.6138 393.314 90.6138V90.6138ZM443.655 121.674V259.743C430.233 254.286 411.729 251.709 393.314 251.709C377.598 251.709 357.641 254.187 342.973 260.166V121.677C345.933 118.173 363.221 110.752 393.314 110.752C423.407 110.752 440.695 118.173 443.655 121.677V121.674ZM222.156 121.674C225.116 118.17 242.403 110.75 272.497 110.75C302.59 110.75 319.877 118.17 322.837 121.674V259.743C309.416 254.286 290.911 251.709 272.497 251.709C256.781 251.709 236.824 254.187 222.156 260.166V121.674Z" fill="white"/>
<path d="M488.184 71.4232L337.159 0.943363C334.46 -0.314454 331.34 -0.314454 328.641 0.943363L177.617 71.4232C172.575 73.7682 170.398 79.7689 172.756 84.8045C175.111 89.8379 181.104 92.0143 186.137 89.6672L332.9 21.1831L479.669 89.678C481.047 90.3143 482.488 90.6156 483.917 90.6156C487.713 90.6156 491.337 88.4602 493.048 84.8066C495.406 79.771 493.229 73.7705 488.185 71.4253L488.184 71.4232Z" fill="white"/>
</svg>
