<svg width="20" height="20" viewBox="0 0 20 20" fill="none" xmlns="http://www.w3.org/2000/svg">
<path d="M9.99913 6.87531C8.27882 6.87531 6.87492 8.27921 6.87492 9.99953C6.87492 11.7198 8.27882 13.1237 9.99913 13.1237C11.7194 13.1237 13.1234 11.7198 13.1234 9.99953C13.1234 8.27921 11.7194 6.87531 9.99913 6.87531ZM19.3694 9.99953C19.3694 8.70578 19.3812 7.42374 19.3085 6.13234C19.2359 4.63234 18.8937 3.30109 17.7968 2.20421C16.6976 1.10499 15.3687 0.76515 13.8687 0.692494C12.5749 0.619838 11.2929 0.631557 10.0015 0.631557C8.70773 0.631557 7.4257 0.619838 6.13429 0.692494C4.63429 0.76515 3.30304 1.10734 2.20617 2.20421C1.10695 3.30343 0.767103 4.63234 0.694447 6.13234C0.621791 7.42609 0.63351 8.70812 0.63351 9.99953C0.63351 11.2909 0.621791 12.5753 0.694447 13.8667C0.767103 15.3667 1.10929 16.698 2.20617 17.7948C3.30538 18.8941 4.63429 19.2339 6.13429 19.3066C7.42804 19.3792 8.71007 19.3675 10.0015 19.3675C11.2952 19.3675 12.5773 19.3792 13.8687 19.3066C15.3687 19.2339 16.6999 18.8917 17.7968 17.7948C18.896 16.6956 19.2359 15.3667 19.3085 13.8667C19.3835 12.5753 19.3694 11.2933 19.3694 9.99953ZM9.99913 14.8066C7.33898 14.8066 5.1921 12.6597 5.1921 9.99953C5.1921 7.33937 7.33898 5.19249 9.99913 5.19249C12.6593 5.19249 14.8062 7.33937 14.8062 9.99953C14.8062 12.6597 12.6593 14.8066 9.99913 14.8066ZM15.003 6.11827C14.3819 6.11827 13.8804 5.61671 13.8804 4.99562C13.8804 4.37453 14.3819 3.87296 15.003 3.87296C15.6241 3.87296 16.1257 4.37453 16.1257 4.99562C16.1259 5.1431 16.097 5.28917 16.0406 5.42546C15.9843 5.56175 15.9016 5.68558 15.7973 5.78987C15.693 5.89415 15.5692 5.97684 15.4329 6.0332C15.2966 6.08955 15.1505 6.11846 15.003 6.11827Z" fill="#FCBD10"/>
</svg>
