<svg width="24" height="24" viewBox="0 0 19 19" fill="none" xmlns="http://www.w3.org/2000/svg">
<path fill-rule="evenodd" clip-rule="evenodd" d="M2.31745e-07 1.56564C2.31745e-07 1.15041 0.164951 0.752183 0.458566 0.458568C0.752181 0.164953 1.15041 2.08722e-06 1.56564 2.08722e-06H17.1727C17.3784 -0.000333999 17.5823 0.0399208 17.7725 0.118462C17.9627 0.197002 18.1355 0.312287 18.2811 0.457715C18.4267 0.603143 18.5421 0.775858 18.6209 0.965972C18.6996 1.15609 18.7401 1.35987 18.74 1.56564V17.1727C18.7402 17.3785 18.6999 17.5823 18.6212 17.7725C18.5426 17.9627 18.4272 18.1356 18.2817 18.2811C18.1362 18.4267 17.9635 18.5422 17.7733 18.6209C17.5831 18.6996 17.3793 18.7401 17.1735 18.74H1.56564C1.35997 18.74 1.15631 18.6995 0.9663 18.6207C0.776292 18.542 0.603659 18.4266 0.458265 18.2811C0.31287 18.1357 0.197564 17.963 0.118933 17.7729C0.0403023 17.5829 -0.00011167 17.3792 2.31745e-07 17.1735V1.56564ZM7.41763 7.14505H9.9552V8.41937C10.3215 7.68681 11.2585 7.0275 12.6665 7.0275C15.3659 7.0275 16.0057 8.48667 16.0057 11.1639V16.1232H13.2739V11.7738C13.2739 10.2491 12.9076 9.38874 11.9774 9.38874C10.6869 9.38874 10.1503 10.3164 10.1503 11.7738V16.1232H7.41763V7.14505ZM2.73263 16.0065H5.46527V7.0275H2.73263V16.0057V16.0065ZM5.85625 4.09895C5.8614 4.33292 5.81977 4.56557 5.73379 4.78323C5.64782 5.00089 5.51923 5.19919 5.35558 5.36648C5.19193 5.53378 4.99651 5.6667 4.78079 5.75745C4.56507 5.84819 4.3334 5.89494 4.09937 5.89494C3.86535 5.89494 3.63368 5.84819 3.41796 5.75745C3.20224 5.6667 3.00682 5.53378 2.84317 5.36648C2.67952 5.19919 2.55093 5.00089 2.46496 4.78323C2.37898 4.56557 2.33735 4.33292 2.3425 4.09895C2.35261 3.6397 2.54215 3.20266 2.87053 2.88144C3.19891 2.56021 3.64001 2.38034 4.09937 2.38034C4.55874 2.38034 4.99984 2.56021 5.32822 2.88144C5.6566 3.20266 5.84614 3.6397 5.85625 4.09895Z" fill="#FCBD10"/>
</svg>
